<svg width="96" height="96" viewBox="0 0 96 96" fill="none" xmlns="http://www.w3.org/2000/svg">
  <defs>
    <linearGradient id="g" x1="12" y1="12" x2="84" y2="84" gradientUnits="userSpaceOnUse">
      <stop stop-color="#1AA3FF"/>
      <stop offset="1" stop-color="#4AC9FF"/>
    </linearGradient>
    <filter id="shadow" x="10" y="10" width="76" height="76" color-interpolation-filters="sRGB">
      <feDropShadow dx="0" dy="6" stdDeviation="8" flood-color="#0B6BA0" flood-opacity="0.25"/>
    </filter>
  </defs>
  <rect x="12" y="12" width="72" height="72" rx="20" fill="url(#g)" filter="url(#shadow)"/>
  <path d="M48 24L52.5 38.5L68 42L52.5 45.5L48 60L43.5 45.5L28 42L43.5 38.5L48 24Z" fill="white"/>
  <path d="M30 60L32 66L38 68L32 70L30 76L28 70L22 68L28 66L30 60Z" fill="white" opacity="0.9"/>
  <path d="M64 56L66 62L72 64L66 66L64 72L62 66L56 64L62 62L64 56Z" fill="white" opacity="0.9"/>
</svg>
